<svg version="1" width="515" height="496" xmlns="http://www.w3.org/2000/svg" display="block">
  <style>
    path{
    fill: rgb(203, 203, 215);
    }
  </style>
  <path d="M244 2a427 427 0 0 0-140 35A549 549 0 0 0 0 97l165 1c172 0 170 0 183 4a91 91 0 0 1 21 9l1 1 4 3a132 132 0 0 1 23 22 128 128 0 0 1 20 111c-6 27-29 56-51 68-20 10-22 10-62 11h-35l1-3a272 272 0 0 0 12-25 2614 2614 0 0 0 48-103 1167 1167 0 0 1 19-42l-62-1h-62l-2 5a1551 1551 0 0 0-43 92 638 638 0 0 1-18 40 3647 3647 0 0 1-64 138 1085 1085 0 0 0-31 68h124l6-12a1131 1131 0 0 0 28-61l1-3h48a978 978 0 0 0 71-3 114 114 0 0 0 21-5 228 228 0 0 0 67-33c9-7 28-25 35-34a273 273 0 0 0 34-58l1-3 2-6 3-9 5-23a207 207 0 0 0-68-191l-9-9a215 215 0 0 0-54-31c-13-5-12-5-27-8-24-7-76-9-111-5" fill-rule="evenodd"/>
</svg>
