<svg id="svg" version="1.1" width="515" height="496" xmlns="http://www.w3.org/2000/svg" xmlns:xlink="http://www.w3.org/1999/xlink" style="display: block; fill: blue"><g id="svgg"><path id="path0" d="M243.500 1.620 C 217.449 4.409,210.066 5.545,188.500 10.085 C 171.635 13.636,157.660 17.201,147.500 20.546 C 144.750 21.451,141.150 22.562,139.500 23.015 C 135.067 24.232,121.821 29.030,114.500 32.070 C 113.400 32.527,108.450 34.535,103.500 36.533 C 87.262 43.088,56.876 58.650,39.533 69.293 C 35.417 71.819,13.449 86.546,12.373 87.500 C 11.753 88.050,8.718 90.300,5.628 92.500 C 2.539 94.700,0.008 96.838,0.005 97.250 C 0.002 97.662,74.044 98.000,164.542 98.000 C 336.689 98.000,334.678 97.955,348.000 102.071 C 354.075 103.948,364.447 108.404,365.821 109.727 C 366.548 110.427,367.786 111.000,368.571 111.000 C 369.357 111.000,370.000 111.348,370.000 111.773 C 370.000 112.198,371.660 113.435,373.689 114.523 C 377.647 116.644,396.000 134.176,396.000 135.835 C 396.000 136.384,396.375 136.983,396.833 137.167 C 398.226 137.724,405.909 150.064,409.493 157.500 C 423.001 185.528,425.420 214.061,417.164 248.000 C 410.678 274.664,388.178 304.183,365.500 315.781 C 345.776 325.869,343.910 326.200,303.736 326.742 L 268.972 327.211 270.490 324.356 C 271.325 322.785,273.629 317.900,275.610 313.500 C 277.591 309.100,280.682 302.350,282.480 298.500 C 285.703 291.595,288.841 284.767,293.738 274.000 C 295.114 270.975,297.935 264.900,300.007 260.500 C 302.078 256.100,304.904 250.025,306.285 247.000 C 309.682 239.563,315.148 227.694,318.259 221.000 C 322.185 212.553,328.003 199.892,329.747 196.000 C 330.610 194.075,333.439 188.000,336.034 182.500 C 338.629 177.000,341.439 170.925,342.278 169.000 C 343.118 167.075,344.973 162.940,346.402 159.812 C 347.831 156.683,349.000 153.871,349.000 153.562 C 349.000 153.253,321.150 153.000,287.110 153.000 L 225.220 153.000 222.967 157.750 C 219.059 165.990,212.861 179.363,211.266 183.000 C 210.421 184.925,207.819 190.550,205.483 195.500 C 203.147 200.450,200.230 206.750,198.999 209.500 C 195.787 216.678,192.832 223.059,187.187 235.000 C 184.458 240.775,181.438 247.300,180.478 249.500 C 179.517 251.700,176.928 257.317,174.724 261.983 C 170.276 271.400,165.423 281.902,162.010 289.500 C 159.914 294.166,157.502 299.457,151.298 313.000 C 149.913 316.025,147.088 322.100,145.022 326.500 C 142.955 330.900,140.034 337.200,138.531 340.500 C 134.451 349.454,132.566 353.540,127.688 364.000 C 125.252 369.225,122.341 375.525,121.219 378.000 C 120.098 380.475,117.393 386.325,115.209 391.000 C 111.158 399.672,107.025 408.732,104.261 415.000 C 103.412 416.925,100.808 422.550,98.474 427.500 C 96.140 432.450,93.221 438.750,91.986 441.500 C 90.751 444.250,87.738 450.775,85.290 456.000 C 82.842 461.225,80.136 467.075,79.278 469.000 C 76.061 476.210,70.746 487.629,68.905 491.281 C 67.857 493.360,67.000 495.273,67.000 495.531 C 67.000 495.789,94.904 496.000,129.009 496.000 L 191.019 496.000 196.878 483.750 C 200.101 477.012,203.696 469.363,204.869 466.750 C 206.041 464.137,207.961 459.863,209.135 457.250 C 210.309 454.637,213.179 448.450,215.513 443.500 C 221.886 429.982,223.793 425.776,224.923 422.750 L 225.950 420.000 274.034 420.000 C 300.479 420.000,325.353 419.555,329.308 419.012 C 333.264 418.468,340.100 417.530,344.500 416.928 C 348.900 416.325,354.525 415.250,357.000 414.538 C 359.475 413.827,363.525 412.687,366.000 412.005 C 384.279 406.967,421.987 389.059,427.000 383.035 C 427.275 382.704,429.975 380.663,433.000 378.500 C 441.574 372.366,461.436 353.580,468.486 344.936 C 474.585 337.458,482.061 326.390,489.720 313.500 C 493.045 307.905,502.000 288.340,502.000 286.673 C 502.000 285.973,502.392 284.972,502.871 284.450 C 503.351 283.928,504.522 280.800,505.475 277.500 C 506.428 274.200,507.664 270.150,508.223 268.500 C 509.349 265.174,509.824 262.850,512.889 245.651 C 515.536 230.792,515.911 194.921,513.550 182.270 C 508.802 156.822,505.659 145.242,500.041 132.500 C 499.314 130.850,498.048 127.925,497.228 126.000 C 486.468 100.744,465.426 71.858,445.000 54.305 C 440.875 50.760,436.600 47.085,435.500 46.139 C 428.677 40.271,412.396 29.770,402.000 24.534 C 397.875 22.456,393.825 20.358,393.000 19.871 C 392.175 19.385,390.825 18.729,390.000 18.412 C 389.175 18.096,385.575 16.708,382.000 15.328 C 368.588 10.149,369.623 10.484,355.000 6.588 C 330.735 0.122,279.025 -2.182,243.500 1.620 " stroke="none" fill="#000000" fill-rule="evenodd"></path></g></svg>
