<svg width="515" height="474" xmlns="http://www.w3.org/2000/svg" display="block">
  <path d="M243.5 1.62c-28.3 3.03-39.17 4.83-68.5 11.35-9.72 2.16-32.3 8.7-40 11.57-1.93.72-6.88 2.5-11 3.97-4.13 1.46-8.4 3.04-9.5 3.52-1.1.48-6 2.5-10.89 4.47-9.04 3.67-35.04 16.2-44.11 21.26-4.31 2.4-14.97 8.56-20.33 11.74-3.17 1.88-25.67 16.99-26.8 18-.62.55-3.65 2.8-6.74 5C2.53 94.7 0 96.84 0 97.25c0 .41 73.69.75 163.75.76 113.51 0 165.6.33 169.75 1.09 14.94 2.7 18.79 3.9 29.5 9.2 7.44 3.67 6.25 2.89 16.08 10.63 4.17 3.28 9.79 8.57 12.48 11.77a153.1 153.1 0 0 0 5.5 6.3c3.08 2.53 14 22.6 17.41 32.01 11.71 32.26 9.12 74.18-6.3 101.99l-3.58 6.48c-8.65 15.67-36.63 41.52-44.94 41.52-.72 0-1.63.3-2 .69-.38.37-2.37 1.3-4.42 2.06-9.7 3.57-16.29 4.5-36.12 5.12-16.68.51-20.54.9-21.17 2.13-.42.82-1.94 4.08-3.37 7.24A2203.72 2203.72 0 0 1 281.21 361a1598.6 1598.6 0 0 0-6 13c-5.35 11.85-7.8 17.2-11.7 25.5l-6.78 14.5-2.57 5.5 37.17.3c36.74.28 39.24.14 58.17-3.23 5.54-.98 25.01-6.53 30-8.54 34.11-13.78 52.22-25.52 75.5-48.96 14.8-14.9 30.59-35.38 33.66-43.69.38-1.03 1-2.1 1.37-2.38.79-.59 7.84-15.5 10.4-22 .98-2.48 2.1-5.18 2.51-6 .4-.82 1.53-4.2 2.49-7.5.96-3.3 2.33-7.8 3.04-10 1.45-4.5 2.76-10.8 5-24 2.12-12.45 2.12-50.3 0-61.73-.85-4.55-1.98-10.75-2.53-13.77-1.4-7.77-7.67-28.5-10.42-34.5-.75-1.65-2.14-4.8-3.08-7-11.25-26.39-33.15-56.14-54.56-74.12l-7-5.87c-3.8-3.18-14.47-10.83-18.08-12.96-12.87-7.6-17.74-10.29-20.8-11.5a31.4 31.4 0 0 1-4.5-2.1c-.93-.67-12.5-5.42-20.5-8.42-10.6-3.97-26.53-7.54-44.68-10.01-14.44-1.96-65.11-1.9-83.82.1M189 207.92c0 .52-1.62 4.45-3.6 8.76-1.97 4.3-4.28 9.4-5.14 11.32-.85 1.93-3.36 7.32-5.56 12a1223.8 1223.8 0 0 0-6.28 13.5 1876.3 1876.3 0 0 1-6.46 14 2374.7 2374.7 0 0 0-11.48 25c-1.25 2.75-3.64 7.93-5.3 11.5a2096.5 2096.5 0 0 0-6.22 13.5l-6.44 14c-3.21 6.9-7.72 16.7-11.75 25.5-1.13 2.48-3.96 8.55-6.28 13.5a916.98 916.98 0 0 0-6.23 13.5l-3.77 8.5a760.8 760.8 0 0 1-6.02 13 1054.5 1054.5 0 0 0-6.48 14 1314.4 1314.4 0 0 1-6.7 14.5c-2.45 5.23-5.15 11.07-6.01 13a781.33 781.33 0 0 1-10.38 22.28c-1.04 2.08-1.9 4-1.9 4.25 0 .26 27.9.47 62 .47h62.02l5.86-12.25c3.22-6.74 6.82-14.39 7.99-17l4.04-9c1.05-2.34 3.7-8.07 5.89-12.75a2613.1 2613.1 0 0 0 12.2-26.5c1-2.2 3.6-7.82 5.8-12.5 3.74-8.03 6.08-13.11 11.94-26 1.37-3.02 4.2-9.1 6.26-13.5 2.07-4.4 4.89-10.48 6.26-13.5a5738.74 5738.74 0 0 1 17-37c3.93-8.45 9.74-21.1 11.49-25 .86-1.93 3.69-8 6.28-13.5 2.6-5.5 5.5-11.8 6.47-14a582.8 582.8 0 0 1 10.65-22.87C315.52 205.6 322.5 207 251 207c-37.41 0-62 .37-62 .93" fill-rule="evenodd"/>
</svg>
